# Utah teapot, Martin Newell (1975). Public domain.
# Converted from the npm package "teapot" by Mikola Lysenko.
v 5.9297 4.125 0
v 5.3872 4.125 2.7475
v 5.2971 4.4941 2.7092
v 5.832 4.4941 0
v 5.4016 4.6172 2.7536
v 5.9453 4.6172 0
v 5.6142 4.4941 2.8441
v 6.1758 4.4941 0
v 5.8484 4.125 2.9438
v 6.4297 4.125 0
v 3.8997 4.125 4.97
v 3.8304 4.4941 4.9007
v 3.9108 4.6172 4.9811
v 4.0744 4.4941 5.1447
v 4.2547 4.125 5.325
v 1.6772 4.125 6.4575
v 1.6389 4.4941 6.3674
v 1.6833 4.6172 6.4719
v 1.7738 4.4941 6.6845
v 1.8734 4.125 6.9188
v -1.0703 4.125 7
v -1.0703 4.4941 6.9023
v -1.0703 4.6172 7.0156
v -1.0703 4.4941 7.2461
v -1.0703 4.125 7.5
v -4.0077 4.125 6.4575
v -3.8596 4.4941 6.3674
v -3.8477 4.6172 6.4719
v -3.9174 4.4941 6.6845
v -4.0141 4.125 6.9188
v -6.2091 4.125 4.97
v -6.0422 4.4941 4.9007
v -6.0725 4.6172 4.9811
v -6.2177 4.4941 5.1447
v -6.3953 4.125 5.325
v -7.5911 4.125 2.7475
v -7.4644 4.4941 2.7092
v -7.5501 4.6172 2.7536
v -7.7558 4.4941 2.8441
v -7.9891 4.125 2.9438
v -8.0703 4.125 0
v -7.9727 4.4941 0
v -8.0859 4.6172 0
v -8.3164 4.4941 0
v -8.5703 4.125 0
v -7.5278 4.125 -2.7475
v -7.4377 4.4941 -2.7092
v -7.5422 4.6172 -2.7536
v -7.7548 4.4941 -2.8441
v -7.9891 4.125 -2.9438
v -6.0403 4.125 -4.97
v -5.971 4.4941 -4.9007
v -6.0514 4.6172 -4.9811
v -6.215 4.4941 -5.1447
v -6.3953 4.125 -5.325
v -3.8178 4.125 -6.4575
v -3.7795 4.4941 -6.3674
v -3.8239 4.6172 -6.4719
v -3.9144 4.4941 -6.6845
v -4.0141 4.125 -6.9188
v -1.0703 4.125 -7
v -1.0703 4.4941 -6.9023
v -1.0703 4.6172 -7.0156
v -1.0703 4.4941 -7.2461
v -1.0703 4.125 -7.5
v 1.6772 4.125 -6.4575
v 1.6389 4.4941 -6.3674
v 1.6833 4.6172 -6.4719
v 1.7738 4.4941 -6.6845
v 1.8734 4.125 -6.9188
v 3.8997 4.125 -4.97
v 3.8304 4.4941 -4.9007
v 3.9108 4.6172 -4.9811
v 4.0744 4.4941 -5.1447
v 4.2547 4.125 -5.325
v 5.3872 4.125 -2.7475
v 5.2971 4.4941 -2.7092
v 5.4016 4.6172 -2.7536
v 5.6142 4.4941 -2.8441
v 5.8484 4.125 -2.9438
v 6.6953 2.1621 3.3041
v 7.3477 2.1621 0
v 7.434 0.2344 3.6184
v 8.1484 0.2344 0
v 7.9565 -1.623 3.8407
v 8.7148 -1.623 0
v 8.1547 -3.375 3.925
v 8.9297 -3.375 0
v 4.9064 2.1621 5.9768
v 5.475 0.2344 6.5453
v 5.8771 -1.623 6.9475
v 6.0297 -3.375 7.1
v 2.2337 2.1621 7.7656
v 2.548 0.2344 8.5043
v 2.7704 -1.623 9.0268
v 2.8547 -3.375 9.225
v -1.0703 2.1621 8.418
v -1.0703 0.2344 9.2188
v -1.0703 -1.623 9.7852
v -1.0703 -3.375 10
v -4.3744 2.1621 7.7656
v -4.6887 0.2344 8.5043
v -4.911 -1.623 9.0268
v -4.9953 -3.375 9.225
v -7.0471 2.1621 5.9768
v -7.6156 0.2344 6.5453
v -8.0178 -1.623 6.9475
v -8.1703 -3.375 7.1
v -8.8359 2.1621 3.3041
v -9.5746 0.2344 3.6184
v -10.0971 -1.623 3.8407
v -10.2953 -3.375 3.925
v -9.4883 2.1621 0
v -10.2891 0.2344 0
v -10.8555 -1.623 0
v -11.0703 -3.375 0
v -8.8359 2.1621 -3.3041
v -9.5746 0.2344 -3.6184
v -10.0971 -1.623 -3.8407
v -10.2953 -3.375 -3.925
v -7.0471 2.1621 -5.9768
v -7.6156 0.2344 -6.5453
v -8.0178 -1.623 -6.9475
v -8.1703 -3.375 -7.1
v -4.3744 2.1621 -7.7656
v -4.6887 0.2344 -8.5043
v -4.911 -1.623 -9.0268
v -4.9953 -3.375 -9.225
v -1.0703 2.1621 -8.418
v -1.0703 0.2344 -9.2188
v -1.0703 -1.623 -9.7852
v -1.0703 -3.375 -10
v 2.2337 2.1621 -7.7656
v 2.548 0.2344 -8.5043
v 2.7704 -1.623 -9.0268
v 2.8547 -3.375 -9.225
v 4.9064 2.1621 -5.9768
v 5.475 0.2344 -6.5453
v 5.8771 -1.623 -6.9475
v 6.0297 -3.375 -7.1
v 6.6953 2.1621 -3.3041
v 7.434 0.2344 -3.6184
v 7.9565 -1.623 -3.8407
v 8.1547 -3.375 -3.925
v 7.7943 -4.8574 3.7717
v 8.5391 -4.8574 0
v 7.0016 -5.9531 3.4344
v 7.6797 -5.9531 0
v 6.2088 -6.6973 3.0971
v 6.8203 -6.6973 0
v 5.8484 -7.125 2.9438
v 6.4297 -7.125 0
v 5.7523 -4.8574 6.8227
v 5.1422 -5.9531 6.2125
v 4.532 -6.6973 5.6023
v 4.2547 -7.125 5.325
v 2.7014 -4.8574 8.8646
v 2.3641 -5.9531 8.0719
v 2.0268 -6.6973 7.2791
v 1.8734 -7.125 6.9188
v -1.0703 -4.8574 9.6094
v -1.0703 -5.9531 8.75
v -1.0703 -6.6973 7.8906
v -1.0703 -7.125 7.5
v -4.842 -4.8574 8.8646
v -4.5047 -5.9531 8.0719
v -4.1674 -6.6973 7.2791
v -4.0141 -7.125 6.9188
v -7.893 -4.8574 6.8227
v -7.2828 -5.9531 6.2125
v -6.6727 -6.6973 5.6023
v -6.3953 -7.125 5.325
v -9.935 -4.8574 3.7717
v -9.1422 -5.9531 3.4344
v -8.3494 -6.6973 3.0971
v -7.9891 -7.125 2.9438
v -10.6797 -4.8574 0
v -9.8203 -5.9531 0
v -8.9609 -6.6973 0
v -8.5703 -7.125 0
v -9.935 -4.8574 -3.7717
v -9.1422 -5.9531 -3.4344
v -8.3494 -6.6973 -3.0971
v -7.9891 -7.125 -2.9438
v -7.893 -4.8574 -6.8227
v -7.2828 -5.9531 -6.2125
v -6.6727 -6.6973 -5.6023
v -6.3953 -7.125 -5.325
v -4.842 -4.8574 -8.8646
v -4.5047 -5.9531 -8.0719
v -4.1674 -6.6973 -7.2791
v -4.0141 -7.125 -6.9188
v -1.0703 -4.8574 -9.6094
v -1.0703 -5.9531 -8.75
v -1.0703 -6.6973 -7.8906
v -1.0703 -7.125 -7.5
v 2.7014 -4.8574 -8.8646
v 2.3641 -5.9531 -8.0719
v 2.0268 -6.6973 -7.2791
v 1.8734 -7.125 -6.9188
v 5.7523 -4.8574 -6.8227
v 5.1422 -5.9531 -6.2125
v 4.532 -6.6973 -5.6023
v 4.2547 -7.125 -5.325
v 7.7943 -4.8574 -3.7717
v 7.0016 -5.9531 -3.4344
v 6.2088 -6.6973 -3.0971
v 5.8484 -7.125 -2.9438
v 5.6917 -7.4004 2.8771
v 6.2598 -7.4004 0
v 4.8539 -7.6406 2.5206
v 5.3516 -7.6406 0
v 2.7836 -7.8105 1.6398
v 3.1074 -7.8105 0
v -1.0703 -7.875 0
v 4.134 -7.4004 5.2044
v 3.4892 -7.6406 4.5595
v 1.8959 -7.8105 2.9662
v 1.8067 -7.4004 6.762
v 1.4503 -7.6406 5.9242
v 0.5694 -7.8105 3.854
v -1.0703 -7.4004 7.3301
v -1.0703 -7.6406 6.4219
v -1.0703 -7.8105 4.1777
v -3.9474 -7.4004 6.762
v -3.5909 -7.6406 5.9242
v -2.7101 -7.8105 3.854
v -6.2747 -7.4004 5.2044
v -5.6298 -7.6406 4.5595
v -4.0365 -7.8105 2.9662
v -7.8323 -7.4004 2.8771
v -6.9945 -7.6406 2.5206
v -4.9243 -7.8105 1.6398
v -8.4004 -7.4004 0
v -7.4922 -7.6406 0
v -5.248 -7.8105 0
v -7.8323 -7.4004 -2.8771
v -6.9945 -7.6406 -2.5206
v -4.9243 -7.8105 -1.6398
v -6.2747 -7.4004 -5.2044
v -5.6298 -7.6406 -4.5595
v -4.0365 -7.8105 -2.9662
v -3.9474 -7.4004 -6.762
v -3.5909 -7.6406 -5.9242
v -2.7101 -7.8105 -3.854
v -1.0703 -7.4004 -7.3301
v -1.0703 -7.6406 -6.4219
v -1.0703 -7.8105 -4.1777
v 1.8067 -7.4004 -6.762
v 1.4503 -7.6406 -5.9242
v 0.5694 -7.8105 -3.854
v 4.134 -7.4004 -5.2044
v 3.4892 -7.6406 -4.5595
v 1.8959 -7.8105 -2.9662
v 5.6917 -7.4004 -2.8771
v 4.8539 -7.6406 -2.5206
v 2.7836 -7.8105 -1.6398
v -9.0703 2.25 0
v -8.9922 2.4258 0.8438
v -11.4758 2.4055 0.8438
v -11.4063 2.2324 0
v -13.2988 2.2632 0.8438
v -13.1328 2.1094 0
v -14.4216 1.877 0.8438
v -14.2031 1.7754 0
v -14.8047 1.125 0.8438
v -14.5703 1.125 0
v -8.8203 2.8125 1.125
v -11.6289 2.7861 1.125
v -13.6641 2.6016 1.125
v -14.9023 2.1006 1.125
v -15.3203 1.125 1.125
v -8.6484 3.1992 0.8438
v -11.782 3.1668 0.8438
v -14.0293 2.9399 0.8438
v -15.3831 2.3242 0.8438
v -15.8359 1.125 0.8438
v -8.5703 3.375 0
v -11.8516 3.3398 0
v -14.1953 3.0938 0
v -15.6016 2.4258 0
v -16.0703 1.125 0
v -8.6484 3.1992 -0.8438
v -11.782 3.1668 -0.8438
v -14.0293 2.9399 -0.8438
v -15.3831 2.3242 -0.8438
v -15.8359 1.125 -0.8438
v -8.8203 2.8125 -1.125
v -11.6289 2.7861 -1.125
v -13.6641 2.6016 -1.125
v -14.9023 2.1006 -1.125
v -15.3203 1.125 -1.125
v -8.9922 2.4258 -0.8438
v -11.4758 2.4055 -0.8438
v -13.2988 2.2632 -0.8438
v -14.4216 1.877 -0.8438
v -14.8047 1.125 -0.8438
v -14.588 0.007 0.8438
v -14.375 0.1055 0
v -13.9092 -1.2751 0.8438
v -13.7578 -1.125 0
v -12.725 -2.5409 0.8438
v -12.6719 -2.3555 0
v -10.9922 -3.6094 0.8438
v -15.0566 -0.2095 1.125
v -14.2422 -1.6055 1.125
v -12.8418 -2.9487 1.125
v -10.8203 -4.125 1.125
v -15.5253 -0.426 0.8438
v -14.5752 -1.9358 0.8438
v -12.9586 -3.3566 0.8438
v -10.6484 -4.6406 0.8438
v -15.7383 -0.5244 0
v -14.7266 -2.0859 0
v -13.0117 -3.542 0
v -10.5703 -4.875 0
v -15.5253 -0.426 -0.8438
v -14.5752 -1.9358 -0.8438
v -12.9586 -3.3566 -0.8438
v -10.6484 -4.6406 -0.8438
v -15.0566 -0.2095 -1.125
v -14.2422 -1.6055 -1.125
v -12.8418 -2.9487 -1.125
v -10.8203 -4.125 -1.125
v -14.588 0.007 -0.8438
v -13.9092 -1.2751 -0.8438
v -12.725 -2.5409 -0.8438
v -10.9922 -3.6094 -0.8438
v 7.4297 -0.75 0
v 7.4297 -1.3945 1.8562
v 10.0112 -0.6771 1.6761
v 9.8281 -0.1992 0
v 11.1016 0.8467 1.2797
v 10.8672 1.125 0
v 11.7231 2.6298 0.8833
v 11.4375 2.7305 0
v 12.8984 4.125 0.7031
v 12.4297 4.125 0
v 7.4297 -2.8125 2.475
v 10.4141 -1.7285 2.2348
v 11.6172 0.2344 1.7063
v 12.3516 2.4082 1.1777
v 13.9297 4.125 0.9375
v 7.4297 -4.2305 1.8562
v 10.8169 -2.7799 1.6761
v 12.1328 -0.3779 1.2797
v 12.98 2.1866 0.8833
v 14.9609 4.125 0.7031
v 7.4297 -4.875 0
v 11 -3.2578 0
v 12.3672 -0.6563 0
v 13.2656 2.0859 0
v 15.4297 4.125 0
v 7.4297 -4.2305 -1.8562
v 10.8169 -2.7799 -1.6761
v 12.1328 -0.3779 -1.2797
v 12.98 2.1866 -0.8833
v 14.9609 4.125 -0.7031
v 7.4297 -2.8125 -2.475
v 10.4141 -1.7285 -2.2348
v 11.6172 0.2344 -1.7063
v 12.3516 2.4082 -1.1777
v 13.9297 4.125 -0.9375
v 7.4297 -1.3945 -1.8562
v 10.0112 -0.6771 -1.6761
v 11.1016 0.8467 -1.2797
v 11.7231 2.6298 -0.8833
v 12.8984 4.125 -0.7031
v 13.2911 4.3462 0.6592
v 12.7891 4.3359 0
v 13.5259 4.4227 0.5625
v 13.0547 4.4063 0
v 13.5329 4.3504 0.4658
v 13.1328 4.3359 0
v 13.2422 4.125 0.4219
v 12.9297 4.125 0
v 14.3955 4.3689 0.8789
v 14.5625 4.459 0.75
v 14.4131 4.3821 0.6211
v 13.9297 4.125 0.5625
v 15.4999 4.3916 0.6592
v 15.5991 4.4952 0.5625
v 15.2933 4.4138 0.4658
v 14.6172 4.125 0.4219
v 16.002 4.4019 0
v 16.0703 4.5117 0
v 15.6934 4.4282 0
v 14.9297 4.125 0
v 15.4999 4.3916 -0.6592
v 15.5991 4.4952 -0.5625
v 15.2933 4.4138 -0.4658
v 14.6172 4.125 -0.4219
v 14.3955 4.3689 -0.8789
v 14.5625 4.459 -0.75
v 14.4131 4.3821 -0.6211
v 13.9297 4.125 -0.5625
v 13.2911 4.3462 -0.6592
v 13.5259 4.4227 -0.5625
v 13.5329 4.3504 -0.4658
v 13.2422 4.125 -0.4219
v 0.5014 7.6289 0.6703
v 0.6328 7.6289 0
v -1.0703 7.875 0
v 0.4293 7.0313 0.6394
v 0.5547 7.0313 0
v -0.162 6.293 0.387
v -0.0859 6.293 0
v -0.1478 5.625 0.3925
v -0.0703 5.625 0
v 0.1405 7.6289 1.2108
v 0.0848 7.0313 1.1552
v -0.3709 6.293 0.6994
v -0.3603 5.625 0.71
v -0.4001 7.6289 1.5717
v -0.4309 7.0313 1.4996
v -0.6834 6.293 0.9083
v -0.6778 5.625 0.9225
v -1.0703 7.6289 1.7031
v -1.0703 7.0313 1.625
v -1.0703 6.293 0.9844
v -1.0703 5.625 1
v -1.7406 7.6289 1.5717
v -1.7097 7.0313 1.4996
v -1.4573 6.293 0.9083
v -1.4628 5.625 0.9225
v -2.2811 7.6289 1.2108
v -2.2255 7.0313 1.1552
v -1.7697 6.293 0.6994
v -1.7803 5.625 0.71
v -2.642 7.6289 0.6703
v -2.5699 7.0313 0.6394
v -1.9786 6.293 0.387
v -1.9928 5.625 0.3925
v -2.7734 7.6289 0
v -2.6953 7.0313 0
v -2.0547 6.293 0
v -2.0703 5.625 0
v -2.642 7.6289 -0.6703
v -2.5699 7.0313 -0.6394
v -1.9786 6.293 -0.387
v -1.9928 5.625 -0.3925
v -2.2811 7.6289 -1.2108
v -2.2255 7.0313 -1.1552
v -1.7697 6.293 -0.6994
v -1.7803 5.625 -0.71
v -1.7406 7.6289 -1.5717
v -1.7097 7.0313 -1.4996
v -1.4573 6.293 -0.9083
v -1.4628 5.625 -0.9225
v -1.0703 7.6289 -1.7031
v -1.0703 7.0313 -1.625
v -1.0703 6.293 -0.9844
v -1.0703 5.625 -1
v -0.4001 7.6289 -1.5717
v -0.4309 7.0313 -1.4996
v -0.6834 6.293 -0.9083
v -0.6778 5.625 -0.9225
v 0.1405 7.6289 -1.2108
v 0.0848 7.0313 -1.1552
v -0.3709 6.293 -0.6994
v -0.3603 5.625 -0.71
v 0.5014 7.6289 -0.6703
v 0.4293 7.0313 -0.6394
v -0.162 6.293 -0.387
v -0.1478 5.625 -0.3925
v 1.0341 5.1797 0.8954
v 1.2109 5.1797 0
v 2.735 4.875 1.6191
v 3.0547 4.875 0
v 4.2629 4.5703 2.2691
v 4.7109 4.5703 0
v 4.9259 4.125 2.5513
v 5.4297 4.125 0
v 0.5494 5.1797 1.6197
v 1.8584 4.875 2.9287
v 3.0344 4.5703 4.1047
v 3.5447 4.125 4.615
v -0.1749 5.1797 2.1045
v 0.5487 4.875 3.8053
v 1.1988 4.5703 5.3332
v 1.4809 4.125 5.9962
v -1.0703 5.1797 2.2813
v -1.0703 4.875 4.125
v -1.0703 4.5703 5.7813
v -1.0703 4.125 6.5
v -1.9657 5.1797 2.1045
v -2.6894 4.875 3.8053
v -3.3395 4.5703 5.3332
v -3.6216 4.125 5.9962
v -2.69 5.1797 1.6197
v -3.9991 4.875 2.9287
v -5.175 4.5703 4.1047
v -5.6853 4.125 4.615
v -3.1748 5.1797 0.8954
v -4.8756 4.875 1.6191
v -6.4035 4.5703 2.2691
v -7.0666 4.125 2.5513
v -3.3516 5.1797 0
v -5.1953 4.875 0
v -6.8516 4.5703 0
v -7.5703 4.125 0
v -3.1748 5.1797 -0.8954
v -4.8756 4.875 -1.6191
v -6.4035 4.5703 -2.2691
v -7.0666 4.125 -2.5513
v -2.69 5.1797 -1.6197
v -3.9991 4.875 -2.9287
v -5.175 4.5703 -4.1047
v -5.6853 4.125 -4.615
v -1.9657 5.1797 -2.1045
v -2.6894 4.875 -3.8053
v -3.3395 4.5703 -5.3332
v -3.6216 4.125 -5.9962
v -1.0703 5.1797 -2.2813
v -1.0703 4.875 -4.125
v -1.0703 4.5703 -5.7813
v -1.0703 4.125 -6.5
v -0.1749 5.1797 -2.1045
v 0.5487 4.875 -3.8053
v 1.1988 4.5703 -5.3332
v 1.4809 4.125 -5.9962
v 0.5494 5.1797 -1.6197
v 1.8584 4.875 -2.9287
v 3.0344 4.5703 -4.1047
v 3.5447 4.125 -4.615
v 1.0341 5.1797 -0.8954
v 2.735 4.875 -1.6191
v 4.2629 4.5703 -2.2691
v 4.9259 4.125 -2.5513
f 1 2 3
f 3 4 1
f 4 3 5
f 5 6 4
f 6 5 7
f 7 8 6
f 8 7 9
f 9 10 8
f 2 11 12
f 12 3 2
f 3 12 13
f 13 5 3
f 5 13 14
f 14 7 5
f 7 14 15
f 15 9 7
f 11 16 17
f 17 12 11
f 12 17 18
f 18 13 12
f 13 18 19
f 19 14 13
f 14 19 20
f 20 15 14
f 16 21 22
f 22 17 16
f 17 22 23
f 23 18 17
f 18 23 24
f 24 19 18
f 19 24 25
f 25 20 19
f 21 26 27
f 27 22 21
f 22 27 28
f 28 23 22
f 23 28 29
f 29 24 23
f 24 29 30
f 30 25 24
f 26 31 32
f 32 27 26
f 27 32 33
f 33 28 27
f 28 33 34
f 34 29 28
f 29 34 35
f 35 30 29
f 31 36 37
f 37 32 31
f 32 37 38
f 38 33 32
f 33 38 39
f 39 34 33
f 34 39 40
f 40 35 34
f 36 41 42
f 42 37 36
f 37 42 43
f 43 38 37
f 38 43 44
f 44 39 38
f 39 44 45
f 45 40 39
f 41 46 47
f 47 42 41
f 42 47 48
f 48 43 42
f 43 48 49
f 49 44 43
f 44 49 50
f 50 45 44
f 46 51 52
f 52 47 46
f 47 52 53
f 53 48 47
f 48 53 54
f 54 49 48
f 49 54 55
f 55 50 49
f 51 56 57
f 57 52 51
f 52 57 58
f 58 53 52
f 53 58 59
f 59 54 53
f 54 59 60
f 60 55 54
f 56 61 62
f 62 57 56
f 57 62 63
f 63 58 57
f 58 63 64
f 64 59 58
f 59 64 65
f 65 60 59
f 61 66 67
f 67 62 61
f 62 67 68
f 68 63 62
f 63 68 69
f 69 64 63
f 64 69 70
f 70 65 64
f 66 71 72
f 72 67 66
f 67 72 73
f 73 68 67
f 68 73 74
f 74 69 68
f 69 74 75
f 75 70 69
f 71 76 77
f 77 72 71
f 72 77 78
f 78 73 72
f 73 78 79
f 79 74 73
f 74 79 80
f 80 75 74
f 76 1 4
f 4 77 76
f 77 4 6
f 6 78 77
f 78 6 8
f 8 79 78
f 79 8 10
f 10 80 79
f 10 9 81
f 81 82 10
f 82 81 83
f 83 84 82
f 84 83 85
f 85 86 84
f 86 85 87
f 87 88 86
f 9 15 89
f 89 81 9
f 81 89 90
f 90 83 81
f 83 90 91
f 91 85 83
f 85 91 92
f 92 87 85
f 15 20 93
f 93 89 15
f 89 93 94
f 94 90 89
f 90 94 95
f 95 91 90
f 91 95 96
f 96 92 91
f 20 25 97
f 97 93 20
f 93 97 98
f 98 94 93
f 94 98 99
f 99 95 94
f 95 99 100
f 100 96 95
f 25 30 101
f 101 97 25
f 97 101 102
f 102 98 97
f 98 102 103
f 103 99 98
f 99 103 104
f 104 100 99
f 30 35 105
f 105 101 30
f 101 105 106
f 106 102 101
f 102 106 107
f 107 103 102
f 103 107 108
f 108 104 103
f 35 40 109
f 109 105 35
f 105 109 110
f 110 106 105
f 106 110 111
f 111 107 106
f 107 111 112
f 112 108 107
f 40 45 113
f 113 109 40
f 109 113 114
f 114 110 109
f 110 114 115
f 115 111 110
f 111 115 116
f 116 112 111
f 45 50 117
f 117 113 45
f 113 117 118
f 118 114 113
f 114 118 119
f 119 115 114
f 115 119 120
f 120 116 115
f 50 55 121
f 121 117 50
f 117 121 122
f 122 118 117
f 118 122 123
f 123 119 118
f 119 123 124
f 124 120 119
f 55 60 125
f 125 121 55
f 121 125 126
f 126 122 121
f 122 126 127
f 127 123 122
f 123 127 128
f 128 124 123
f 60 65 129
f 129 125 60
f 125 129 130
f 130 126 125
f 126 130 131
f 131 127 126
f 127 131 132
f 132 128 127
f 65 70 133
f 133 129 65
f 129 133 134
f 134 130 129
f 130 134 135
f 135 131 130
f 131 135 136
f 136 132 131
f 70 75 137
f 137 133 70
f 133 137 138
f 138 134 133
f 134 138 139
f 139 135 134
f 135 139 140
f 140 136 135
f 75 80 141
f 141 137 75
f 137 141 142
f 142 138 137
f 138 142 143
f 143 139 138
f 139 143 144
f 144 140 139
f 80 10 82
f 82 141 80
f 141 82 84
f 84 142 141
f 142 84 86
f 86 143 142
f 143 86 88
f 88 144 143
f 88 87 145
f 145 146 88
f 146 145 147
f 147 148 146
f 148 147 149
f 149 150 148
f 150 149 151
f 151 152 150
f 87 92 153
f 153 145 87
f 145 153 154
f 154 147 145
f 147 154 155
f 155 149 147
f 149 155 156
f 156 151 149
f 92 96 157
f 157 153 92
f 153 157 158
f 158 154 153
f 154 158 159
f 159 155 154
f 155 159 160
f 160 156 155
f 96 100 161
f 161 157 96
f 157 161 162
f 162 158 157
f 158 162 163
f 163 159 158
f 159 163 164
f 164 160 159
f 100 104 165
f 165 161 100
f 161 165 166
f 166 162 161
f 162 166 167
f 167 163 162
f 163 167 168
f 168 164 163
f 104 108 169
f 169 165 104
f 165 169 170
f 170 166 165
f 166 170 171
f 171 167 166
f 167 171 172
f 172 168 167
f 108 112 173
f 173 169 108
f 169 173 174
f 174 170 169
f 170 174 175
f 175 171 170
f 171 175 176
f 176 172 171
f 112 116 177
f 177 173 112
f 173 177 178
f 178 174 173
f 174 178 179
f 179 175 174
f 175 179 180
f 180 176 175
f 116 120 181
f 181 177 116
f 177 181 182
f 182 178 177
f 178 182 183
f 183 179 178
f 179 183 184
f 184 180 179
f 120 124 185
f 185 181 120
f 181 185 186
f 186 182 181
f 182 186 187
f 187 183 182
f 183 187 188
f 188 184 183
f 124 128 189
f 189 185 124
f 185 189 190
f 190 186 185
f 186 190 191
f 191 187 186
f 187 191 192
f 192 188 187
f 128 132 193
f 193 189 128
f 189 193 194
f 194 190 189
f 190 194 195
f 195 191 190
f 191 195 196
f 196 192 191
f 132 136 197
f 197 193 132
f 193 197 198
f 198 194 193
f 194 198 199
f 199 195 194
f 195 199 200
f 200 196 195
f 136 140 201
f 201 197 136
f 197 201 202
f 202 198 197
f 198 202 203
f 203 199 198
f 199 203 204
f 204 200 199
f 140 144 205
f 205 201 140
f 201 205 206
f 206 202 201
f 202 206 207
f 207 203 202
f 203 207 208
f 208 204 203
f 144 88 146
f 146 205 144
f 205 146 148
f 148 206 205
f 206 148 150
f 150 207 206
f 207 150 152
f 152 208 207
f 152 151 209
f 209 210 152
f 210 209 211
f 211 212 210
f 212 211 213
f 213 214 212
f 214 213 215
f 151 156 216
f 216 209 151
f 209 216 217
f 217 211 209
f 211 217 218
f 218 213 211
f 213 218 215
f 156 160 219
f 219 216 156
f 216 219 220
f 220 217 216
f 217 220 221
f 221 218 217
f 218 221 215
f 160 164 222
f 222 219 160
f 219 222 223
f 223 220 219
f 220 223 224
f 224 221 220
f 221 224 215
f 164 168 225
f 225 222 164
f 222 225 226
f 226 223 222
f 223 226 227
f 227 224 223
f 224 227 215
f 168 172 228
f 228 225 168
f 225 228 229
f 229 226 225
f 226 229 230
f 230 227 226
f 227 230 215
f 172 176 231
f 231 228 172
f 228 231 232
f 232 229 228
f 229 232 233
f 233 230 229
f 230 233 215
f 176 180 234
f 234 231 176
f 231 234 235
f 235 232 231
f 232 235 236
f 236 233 232
f 233 236 215
f 180 184 237
f 237 234 180
f 234 237 238
f 238 235 234
f 235 238 239
f 239 236 235
f 236 239 215
f 184 188 240
f 240 237 184
f 237 240 241
f 241 238 237
f 238 241 242
f 242 239 238
f 239 242 215
f 188 192 243
f 243 240 188
f 240 243 244
f 244 241 240
f 241 244 245
f 245 242 241
f 242 245 215
f 192 196 246
f 246 243 192
f 243 246 247
f 247 244 243
f 244 247 248
f 248 245 244
f 245 248 215
f 196 200 249
f 249 246 196
f 246 249 250
f 250 247 246
f 247 250 251
f 251 248 247
f 248 251 215
f 200 204 252
f 252 249 200
f 249 252 253
f 253 250 249
f 250 253 254
f 254 251 250
f 251 254 215
f 204 208 255
f 255 252 204
f 252 255 256
f 256 253 252
f 253 256 257
f 257 254 253
f 254 257 215
f 208 152 210
f 210 255 208
f 255 210 212
f 212 256 255
f 256 212 214
f 214 257 256
f 257 214 215
f 258 259 260
f 260 261 258
f 261 260 262
f 262 263 261
f 263 262 264
f 264 265 263
f 265 264 266
f 266 267 265
f 259 268 269
f 269 260 259
f 260 269 270
f 270 262 260
f 262 270 271
f 271 264 262
f 264 271 272
f 272 266 264
f 268 273 274
f 274 269 268
f 269 274 275
f 275 270 269
f 270 275 276
f 276 271 270
f 271 276 277
f 277 272 271
f 273 278 279
f 279 274 273
f 274 279 280
f 280 275 274
f 275 280 281
f 281 276 275
f 276 281 282
f 282 277 276
f 278 283 284
f 284 279 278
f 279 284 285
f 285 280 279
f 280 285 286
f 286 281 280
f 281 286 287
f 287 282 281
f 283 288 289
f 289 284 283
f 284 289 290
f 290 285 284
f 285 290 291
f 291 286 285
f 286 291 292
f 292 287 286
f 288 293 294
f 294 289 288
f 289 294 295
f 295 290 289
f 290 295 296
f 296 291 290
f 291 296 297
f 297 292 291
f 293 258 261
f 261 294 293
f 294 261 263
f 263 295 294
f 295 263 265
f 265 296 295
f 296 265 267
f 267 297 296
f 267 266 298
f 298 299 267
f 299 298 300
f 300 301 299
f 301 300 302
f 302 303 301
f 303 302 304
f 304 116 303
f 266 272 305
f 305 298 266
f 298 305 306
f 306 300 298
f 300 306 307
f 307 302 300
f 302 307 308
f 308 304 302
f 272 277 309
f 309 305 272
f 305 309 310
f 310 306 305
f 306 310 311
f 311 307 306
f 307 311 312
f 312 308 307
f 277 282 313
f 313 309 277
f 309 313 314
f 314 310 309
f 310 314 315
f 315 311 310
f 311 315 316
f 316 312 311
f 282 287 317
f 317 313 282
f 313 317 318
f 318 314 313
f 314 318 319
f 319 315 314
f 315 319 320
f 320 316 315
f 287 292 321
f 321 317 287
f 317 321 322
f 322 318 317
f 318 322 323
f 323 319 318
f 319 323 324
f 324 320 319
f 292 297 325
f 325 321 292
f 321 325 326
f 326 322 321
f 322 326 327
f 327 323 322
f 323 327 328
f 328 324 323
f 297 267 299
f 299 325 297
f 325 299 301
f 301 326 325
f 326 301 303
f 303 327 326
f 327 303 116
f 116 328 327
f 329 330 331
f 331 332 329
f 332 331 333
f 333 334 332
f 334 333 335
f 335 336 334
f 336 335 337
f 337 338 336
f 330 339 340
f 340 331 330
f 331 340 341
f 341 333 331
f 333 341 342
f 342 335 333
f 335 342 343
f 343 337 335
f 339 344 345
f 345 340 339
f 340 345 346
f 346 341 340
f 341 346 347
f 347 342 341
f 342 347 348
f 348 343 342
f 344 349 350
f 350 345 344
f 345 350 351
f 351 346 345
f 346 351 352
f 352 347 346
f 347 352 353
f 353 348 347
f 349 354 355
f 355 350 349
f 350 355 356
f 356 351 350
f 351 356 357
f 357 352 351
f 352 357 358
f 358 353 352
f 354 359 360
f 360 355 354
f 355 360 361
f 361 356 355
f 356 361 362
f 362 357 356
f 357 362 363
f 363 358 357
f 359 364 365
f 365 360 359
f 360 365 366
f 366 361 360
f 361 366 367
f 367 362 361
f 362 367 368
f 368 363 362
f 364 329 332
f 332 365 364
f 365 332 334
f 334 366 365
f 366 334 336
f 336 367 366
f 367 336 338
f 338 368 367
f 338 337 369
f 369 370 338
f 370 369 371
f 371 372 370
f 372 371 373
f 373 374 372
f 374 373 375
f 375 376 374
f 337 343 377
f 377 369 337
f 369 377 378
f 378 371 369
f 371 378 379
f 379 373 371
f 373 379 380
f 380 375 373
f 343 348 381
f 381 377 343
f 377 381 382
f 382 378 377
f 378 382 383
f 383 379 378
f 379 383 384
f 384 380 379
f 348 353 385
f 385 381 348
f 381 385 386
f 386 382 381
f 382 386 387
f 387 383 382
f 383 387 388
f 388 384 383
f 353 358 389
f 389 385 353
f 385 389 390
f 390 386 385
f 386 390 391
f 391 387 386
f 387 391 392
f 392 388 387
f 358 363 393
f 393 389 358
f 389 393 394
f 394 390 389
f 390 394 395
f 395 391 390
f 391 395 396
f 396 392 391
f 363 368 397
f 397 393 363
f 393 397 398
f 398 394 393
f 394 398 399
f 399 395 394
f 395 399 400
f 400 396 395
f 368 338 370
f 370 397 368
f 397 370 372
f 372 398 397
f 398 372 374
f 374 399 398
f 399 374 376
f 376 400 399
f 401 402 403
f 402 401 404
f 404 405 402
f 405 404 406
f 406 407 405
f 407 406 408
f 408 409 407
f 410 401 403
f 401 410 411
f 411 404 401
f 404 411 412
f 412 406 404
f 406 412 413
f 413 408 406
f 414 410 403
f 410 414 415
f 415 411 410
f 411 415 416
f 416 412 411
f 412 416 417
f 417 413 412
f 418 414 403
f 414 418 419
f 419 415 414
f 415 419 420
f 420 416 415
f 416 420 421
f 421 417 416
f 422 418 403
f 418 422 423
f 423 419 418
f 419 423 424
f 424 420 419
f 420 424 425
f 425 421 420
f 426 422 403
f 422 426 427
f 427 423 422
f 423 427 428
f 428 424 423
f 424 428 429
f 429 425 424
f 430 426 403
f 426 430 431
f 431 427 426
f 427 431 432
f 432 428 427
f 428 432 433
f 433 429 428
f 434 430 403
f 430 434 435
f 435 431 430
f 431 435 436
f 436 432 431
f 432 436 437
f 437 433 432
f 438 434 403
f 434 438 439
f 439 435 434
f 435 439 440
f 440 436 435
f 436 440 441
f 441 437 436
f 442 438 403
f 438 442 443
f 443 439 438
f 439 443 444
f 444 440 439
f 440 444 445
f 445 441 440
f 446 442 403
f 442 446 447
f 447 443 442
f 443 447 448
f 448 444 443
f 444 448 449
f 449 445 444
f 450 446 403
f 446 450 451
f 451 447 446
f 447 451 452
f 452 448 447
f 448 452 453
f 453 449 448
f 454 450 403
f 450 454 455
f 455 451 450
f 451 455 456
f 456 452 451
f 452 456 457
f 457 453 452
f 458 454 403
f 454 458 459
f 459 455 454
f 455 459 460
f 460 456 455
f 456 460 461
f 461 457 456
f 462 458 403
f 458 462 463
f 463 459 458
f 459 463 464
f 464 460 459
f 460 464 465
f 465 461 460
f 402 462 403
f 462 402 405
f 405 463 462
f 463 405 407
f 407 464 463
f 464 407 409
f 409 465 464
f 409 408 466
f 466 467 409
f 467 466 468
f 468 469 467
f 469 468 470
f 470 471 469
f 471 470 472
f 472 473 471
f 408 413 474
f 474 466 408
f 466 474 475
f 475 468 466
f 468 475 476
f 476 470 468
f 470 476 477
f 477 472 470
f 413 417 478
f 478 474 413
f 474 478 479
f 479 475 474
f 475 479 480
f 480 476 475
f 476 480 481
f 481 477 476
f 417 421 482
f 482 478 417
f 478 482 483
f 483 479 478
f 479 483 484
f 484 480 479
f 480 484 485
f 485 481 480
f 421 425 486
f 486 482 421
f 482 486 487
f 487 483 482
f 483 487 488
f 488 484 483
f 484 488 489
f 489 485 484
f 425 429 490
f 490 486 425
f 486 490 491
f 491 487 486
f 487 491 492
f 492 488 487
f 488 492 493
f 493 489 488
f 429 433 494
f 494 490 429
f 490 494 495
f 495 491 490
f 491 495 496
f 496 492 491
f 492 496 497
f 497 493 492
f 433 437 498
f 498 494 433
f 494 498 499
f 499 495 494
f 495 499 500
f 500 496 495
f 496 500 501
f 501 497 496
f 437 441 502
f 502 498 437
f 498 502 503
f 503 499 498
f 499 503 504
f 504 500 499
f 500 504 505
f 505 501 500
f 441 445 506
f 506 502 441
f 502 506 507
f 507 503 502
f 503 507 508
f 508 504 503
f 504 508 509
f 509 505 504
f 445 449 510
f 510 506 445
f 506 510 511
f 511 507 506
f 507 511 512
f 512 508 507
f 508 512 513
f 513 509 508
f 449 453 514
f 514 510 449
f 510 514 515
f 515 511 510
f 511 515 516
f 516 512 511
f 512 516 517
f 517 513 512
f 453 457 518
f 518 514 453
f 514 518 519
f 519 515 514
f 515 519 520
f 520 516 515
f 516 520 521
f 521 517 516
f 457 461 522
f 522 518 457
f 518 522 523
f 523 519 518
f 519 523 524
f 524 520 519
f 520 524 525
f 525 521 520
f 461 465 526
f 526 522 461
f 522 526 527
f 527 523 522
f 523 527 528
f 528 524 523
f 524 528 529
f 529 525 524
f 465 409 467
f 467 526 465
f 526 467 469
f 469 527 526
f 527 469 471
f 471 528 527
f 528 471 473
f 473 529 528
